<svg xmlns="http://www.w3.org/2000/svg" width="0" height="0" style="position:absolute"><symbol id="_th-menu" viewBox="0 0 24 24"><path d="M19 17H5c-1.103 0-2 .897-2 2s.897 2 2 2h14c1.103 0 2-.897 2-2s-.897-2-2-2zm0-7H5c-1.103 0-2 .897-2 2s.897 2 2 2h14c1.103 0 2-.897 2-2s-.897-2-2-2zm0-7H5c-1.103 0-2 .897-2 2s.897 2 2 2h14c1.103 0 2-.897 2-2s-.897-2-2-2z"/></symbol><symbol id="arrow-right" viewBox="0 0 32 32"><path d="M19.414 27.414l10-10a2 2 0 0 0 0-2.828l-10-10a2 2 0 1 0-2.828 2.828L23.172 14H4a2 2 0 1 0 0 4h19.172l-6.586 6.586c-.39.39-.586.902-.586 1.414s.195 1.024.586 1.414a2 2 0 0 0 2.828 0z"/></symbol><symbol id="cancel" viewBox="0 0 32 32"><path d="M16 29C8.82 29 3 23.18 3 16S8.82 3 16 3s13 5.82 13 13-5.82 13-13 13zm5.961-16.791a.626.626 0 0 0 0-.885l-1.328-1.327a.626.626 0 0 0-.885 0l-3.761 3.761-3.761-3.761a.626.626 0 0 0-.885 0l-1.328 1.327a.626.626 0 0 0 0 .885l3.762 3.762-3.762 3.76a.626.626 0 0 0 0 .885l1.328 1.328a.626.626 0 0 0 .885 0l3.761-3.762 3.761 3.762a.626.626 0 0 0 .885 0l1.328-1.328a.626.626 0 0 0 0-.885l-3.762-3.76 3.762-3.762z"/></symbol><symbol id="chevron-down" viewBox="0 0 24 24"><path d="M18.7 8.3c-.4-.4-1-.4-1.4 0L12 13.6 6.7 8.3c-.4-.4-1-.4-1.4 0s-.4 1 0 1.4l6 6c.2.2.5.3.7.3s.5-.1.7-.3l6-6c.4-.4.4-1 0-1.4z"/></symbol><symbol id="chevron-left" viewBox="0 0 24 24"><path d="M10.4 12l5.3-5.3c.4-.4.4-1 0-1.4s-1-.4-1.4 0l-6 6c-.4.4-.4 1 0 1.4l6 6c.2.2.5.3.7.3s.5-.1.7-.3c.4-.4.4-1 0-1.4L10.4 12z"/></symbol><symbol id="chevron-right" viewBox="0 0 24 24"><path d="M15.7 11.3l-6-6c-.4-.4-1-.4-1.4 0s-.4 1 0 1.4l5.3 5.3-5.3 5.3c-.4.4-.4 1 0 1.4.2.2.4.3.7.3s.5-.1.7-.3l6-6c.4-.4.4-1 0-1.4z"/></symbol><symbol id="chevron-up" viewBox="0 0 24 24"><path d="M18.7 14.3l-6-6c-.4-.4-1-.4-1.4 0l-6 6c-.4.4-.4 1 0 1.4s1 .4 1.4 0l5.3-5.3 5.3 5.3c.2.2.5.3.7.3s.5-.1.7-.3c.4-.4.4-1 0-1.4z"/></symbol><symbol id="close" viewBox="0 0 22 28"><path d="M20.281 20.656c0 .391-.156.781-.438 1.062l-2.125 2.125c-.281.281-.672.438-1.062.438s-.781-.156-1.062-.438L11 19.249l-4.594 4.594c-.281.281-.672.438-1.062.438s-.781-.156-1.062-.438l-2.125-2.125c-.281-.281-.438-.672-.438-1.062s.156-.781.438-1.062L6.751 15l-4.594-4.594c-.281-.281-.438-.672-.438-1.062s.156-.781.438-1.062l2.125-2.125c.281-.281.672-.438 1.062-.438s.781.156 1.062.438L11 10.751l4.594-4.594c.281-.281.672-.438 1.062-.438s.781.156 1.062.438l2.125 2.125c.281.281.438.672.438 1.062s-.156.781-.438 1.062L15.249 15l4.594 4.594c.281.281.438.672.438 1.062z"/></symbol><symbol id="play" viewBox="0 0 32 32"><path d="M16 0C7.163 0 0 7.163 0 16s7.163 16 16 16 16-7.163 16-16S24.837 0 16 0zm0 29C8.82 29 3 23.18 3 16S8.82 3 16 3s13 5.82 13 13-5.82 13-13 13zM12 9l12 7-12 7z"/></symbol><symbol id="quotes-right" viewBox="0 0 32 32"><path d="M25 20a7 7 0 1 1 7-7l.031 1c0 7.732-6.268 14-14 14v-4a9.934 9.934 0 0 0 7.071-2.929c.364-.364.695-.75.995-1.157A7.081 7.081 0 0 1 25 20zM7 20a7 7 0 1 1 7-7l.031 1c0 7.732-6.268 14-14 14v-4a9.934 9.934 0 0 0 7.071-2.929c.364-.364.695-.75.995-1.157A7.081 7.081 0 0 1 7 20z"/></symbol><symbol id="search" viewBox="0 0 24 24"><path d="M21.7 20.3L18 16.6c1.2-1.5 2-3.5 2-5.6 0-5-4-9-9-9s-9 4-9 9 4 9 9 9c2.1 0 4.1-.7 5.6-2l3.7 3.7c.2.2.5.3.7.3s.5-.1.7-.3c.4-.4.4-1 0-1.4zM4 11c0-3.9 3.1-7 7-7s7 3.1 7 7c0 1.9-.8 3.7-2 4.9-1.3 1.3-3 2-4.9 2-4 .1-7.1-3-7.1-6.9z"/></symbol><symbol id="th-menu" viewBox="0 0 100 100"><path d="M11 31h58c6.075 0 11-4.925 11-11S75.075 9 69 9H11C4.925 9 0 13.925 0 20s4.925 11 11 11zm78 8H11C4.925 39 0 43.925 0 50s4.925 11 11 11h78c6.075 0 11-4.925 11-11s-4.925-11-11-11zM69 69H11C4.925 69 0 73.925 0 80s4.925 11 11 11h58c6.075 0 11-4.925 11-11s-4.925-11-11-11z"/></symbol></svg>