<svg xmlns="http://www.w3.org/2000/svg" viewBox="0 0 303.3 46.3"><defs><style>.a{fill-opacity:0.5;}</style></defs><title>snakOmHash-logo</title><path d="M346.9,335.2a1.8,1.8,0,0,1-.7-.5,1.6,1.6,0,0,1-.3-.9,1.8,1.8,0,0,1,.4-1,1.4,1.4,0,0,1,1.1-.5l.6.2a18.1,18.1,0,0,0,6.9,1.4c4.1,0,6.1-1.3,6.1-4a2.4,2.4,0,0,0-.7-1.8,9.5,9.5,0,0,0-2-1.1c-.8-.2-1.8-.6-3.3-.9l-4.6-1.4a10.2,10.2,0,0,1-3-2.1,5.2,5.2,0,0,1-1.2-3.6,6.6,6.6,0,0,1,1-3.7,7.8,7.8,0,0,1,3.1-2.5,10.7,10.7,0,0,1,4.9-1,21.9,21.9,0,0,1,7,1.1,1.4,1.4,0,0,1,1,1.4,1.5,1.5,0,0,1-.4,1.1,1.3,1.3,0,0,1-1,.4h-.6a15.4,15.4,0,0,0-5.6-1,8.3,8.3,0,0,0-4.5,1.1,3.2,3.2,0,0,0-1.7,2.9,2.6,2.6,0,0,0,.8,2.1,5.6,5.6,0,0,0,2,1.2l3.4.9a30.7,30.7,0,0,1,4.5,1.4,7.2,7.2,0,0,1,2.9,2,5.6,5.6,0,0,1,1.2,3.8,6.1,6.1,0,0,1-1.1,3.5,6.5,6.5,0,0,1-3.2,2.4,11.3,11.3,0,0,1-4.7.9A19.6,19.6,0,0,1,346.9,335.2Z" transform="translate(-287.1 -304.8)"/><path d="M368.6,336.3a1.5,1.5,0,0,1-.4-1.1v-15a1.6,1.6,0,0,1,.4-1.2,1.7,1.7,0,0,1,1.2-.5,1.6,1.6,0,0,1,1.1.5,1.7,1.7,0,0,1,.5,1.2v1.4a12.3,12.3,0,0,1,2.8-2.4,8.7,8.7,0,0,1,3.7-.8,5.8,5.8,0,0,1,3.3.9,5.4,5.4,0,0,1,2.2,2.5,7.7,7.7,0,0,1,.7,3.4v10a1.5,1.5,0,0,1-.4,1.1,1.6,1.6,0,0,1-1.2.4,1.4,1.4,0,0,1-1.5-1.5v-9.6c0-2.9-1.3-4.3-3.9-4.3a5.4,5.4,0,0,0-3.1.9,10.1,10.1,0,0,0-2.6,2.5v10.5a1.6,1.6,0,0,1-.5,1.1,1.5,1.5,0,0,1-1.1.4A1.6,1.6,0,0,1,368.6,336.3Z" transform="translate(-287.1 -304.8)"/><path d="M391.2,336.3a4.6,4.6,0,0,1-2.1-1.8,5.7,5.7,0,0,1-.8-2.8,5,5,0,0,1,2.1-4.2,10.2,10.2,0,0,1,6-1.5h4.2v-.3a4.1,4.1,0,0,0-1.1-3.3,5.2,5.2,0,0,0-3.6-1l-2.3.2-2.3.6h-.5a1.2,1.2,0,0,1-.9-.4,1.8,1.8,0,0,1-.4-.9,1.4,1.4,0,0,1,.9-1.4,16.2,16.2,0,0,1,6.1-1.2,7.6,7.6,0,0,1,4.1,1,5.8,5.8,0,0,1,2.4,2.5,6.6,6.6,0,0,1,.8,3.4v9.9a1.3,1.3,0,0,1-.5,1.1,1.4,1.4,0,0,1-1.1.4,1.5,1.5,0,0,1-1.1-.4,1.6,1.6,0,0,1-.5-1.1v-.9a8.9,8.9,0,0,1-6.5,2.6A6.8,6.8,0,0,1,391.2,336.3Zm7-2.9a7.8,7.8,0,0,0,2.4-1.9v-2.9h-3.8c-3.5,0-5.3.9-5.3,2.7a2.7,2.7,0,0,0,.9,2.1,4.3,4.3,0,0,0,2.8.7A6,6,0,0,0,398.2,333.4Z" transform="translate(-287.1 -304.8)"/><path d="M409.6,336.3a1.5,1.5,0,0,1-.4-1.1V312.5a1.5,1.5,0,0,1,1.5-1.7,1.7,1.7,0,0,1,1.7,1.7v14.3l8.3-7.7a1.6,1.6,0,0,1,1-.5,1.5,1.5,0,0,1,1.6,1.6,1.5,1.5,0,0,1-.6,1.1l-5.1,4.6,6.4,8.4a1.6,1.6,0,0,1,.3.9,1.4,1.4,0,0,1-.4,1.1,1.6,1.6,0,0,1-1.2.4H422l-.6-.5-6-8.2-3,2.8v4.5a1.5,1.5,0,0,1-1.7,1.5A1.5,1.5,0,0,1,409.6,336.3Z" transform="translate(-287.1 -304.8)"/><path d="M433.3,335.3a10.7,10.7,0,0,1-4.3-4.4,14.2,14.2,0,0,1,0-13.1,11.3,11.3,0,0,1,4.3-4.4,11.9,11.9,0,0,1,6.4-1.6,12.2,12.2,0,0,1,6.4,1.6,11.6,11.6,0,0,1,4.3,4.5,13.8,13.8,0,0,1,0,12.9,11,11,0,0,1-4.3,4.5,12.2,12.2,0,0,1-6.4,1.6A11.9,11.9,0,0,1,433.3,335.3Zm11.3-2.6a9.2,9.2,0,0,0,3.1-3.4,11.4,11.4,0,0,0,1.1-4.9,10.7,10.7,0,0,0-1.1-4.9,8.8,8.8,0,0,0-3.1-3.5,10.6,10.6,0,0,0-9.8,0,8.1,8.1,0,0,0-3.1,3.5,10.7,10.7,0,0,0-1.1,4.9,11.4,11.4,0,0,0,1.1,4.9,8.4,8.4,0,0,0,3.1,3.4,10.6,10.6,0,0,0,9.8,0Z" transform="translate(-287.1 -304.8)"/><path d="M456.8,336.3a1.5,1.5,0,0,1-.4-1.1v-15a1.5,1.5,0,0,1,1.5-1.7,1.7,1.7,0,0,1,1.2.5,1.6,1.6,0,0,1,.4,1.2v1.4a10.4,10.4,0,0,1,2.4-2.3,6.4,6.4,0,0,1,3.6-.9,5.2,5.2,0,0,1,3.3,1,5.6,5.6,0,0,1,2,2.6,7.1,7.1,0,0,1,6.5-3.6,5.2,5.2,0,0,1,3.3,1,5.4,5.4,0,0,1,1.9,2.5,8.7,8.7,0,0,1,.6,3.2v10.1a1.5,1.5,0,0,1-.4,1.1,1.7,1.7,0,0,1-1.2.4,1.5,1.5,0,0,1-1.1-.4,1.6,1.6,0,0,1-.5-1.1v-9.5a5,5,0,0,0-.8-3.3,3.1,3.1,0,0,0-2.7-1.1,4.9,4.9,0,0,0-3,.9,10.3,10.3,0,0,0-2.1,2.5v10.5a1.5,1.5,0,0,1-.4,1.1,1.7,1.7,0,0,1-1.2.4,1.5,1.5,0,0,1-1.1-.4,1.6,1.6,0,0,1-.5-1.1v-9.5a5,5,0,0,0-.8-3.3,3.1,3.1,0,0,0-2.7-1.1,4.9,4.9,0,0,0-3,.9,10.3,10.3,0,0,0-2.1,2.5v10.5a1.5,1.5,0,0,1-.4,1.1,1.6,1.6,0,0,1-1.2.4A1.5,1.5,0,0,1,456.8,336.3Z" transform="translate(-287.1 -304.8)"/><path d="M489.1,336.3a1.6,1.6,0,0,1-.5-1.1V313.6a1.8,1.8,0,0,1,.5-1.2,1.7,1.7,0,0,1,2.2,0,1.5,1.5,0,0,1,.5,1.2v9.3h13.3v-9.3a1.7,1.7,0,0,1,.4-1.2,1.5,1.5,0,0,1,1.1-.4,1.6,1.6,0,0,1,1.2.4,1.8,1.8,0,0,1,.5,1.2v21.6a1.5,1.5,0,0,1-1.7,1.5,1.4,1.4,0,0,1-1.5-1.5v-9.3H491.8v9.3a1.3,1.3,0,0,1-.5,1.1,1.7,1.7,0,0,1-2.2,0Z" transform="translate(-287.1 -304.8)"/><path d="M516.1,336.3a4.6,4.6,0,0,1-2.1-1.8,5.5,5.5,0,0,1-.7-2.8,4.9,4.9,0,0,1,2-4.2,10.2,10.2,0,0,1,6-1.5h4.2v-.3a4.1,4.1,0,0,0-1.1-3.3,4.9,4.9,0,0,0-3.5-1l-2.4.2-2.3.6h-.5a1.2,1.2,0,0,1-.9-.4,1.6,1.6,0,0,1-.3-.9,1.4,1.4,0,0,1,.9-1.4,15.7,15.7,0,0,1,6-1.2,7.6,7.6,0,0,1,4.1,1,5.8,5.8,0,0,1,2.4,2.5,6.6,6.6,0,0,1,.8,3.4v9.9a1.5,1.5,0,0,1-.4,1.1,1.7,1.7,0,0,1-1.2.4,1.5,1.5,0,0,1-1.1-.4,1.6,1.6,0,0,1-.5-1.1v-.9a8.9,8.9,0,0,1-6.5,2.6A6.8,6.8,0,0,1,516.1,336.3Zm7-2.9a7.8,7.8,0,0,0,2.4-1.9v-2.9h-3.8c-3.5,0-5.3.9-5.3,2.7a2.7,2.7,0,0,0,.9,2.1,4.4,4.4,0,0,0,2.9.7A5.9,5.9,0,0,0,523.1,333.4Z" transform="translate(-287.1 -304.8)"/><path d="M533.5,335.3a1.1,1.1,0,0,1-.6-1.1,1.3,1.3,0,0,1,.4-1,1.2,1.2,0,0,1,1-.4h.6a9.7,9.7,0,0,0,2.2.8,10.3,10.3,0,0,0,2.6.3c2.5,0,3.8-.8,3.8-2.5a1.4,1.4,0,0,0-.9-1.2,15.1,15.1,0,0,0-2.9-1,17.5,17.5,0,0,1-3.4-1,5.3,5.3,0,0,1-2.3-1.6,4.1,4.1,0,0,1-1-2.8,5,5,0,0,1,1.8-4,7.8,7.8,0,0,1,5.1-1.5,15.9,15.9,0,0,1,5,.8,1.2,1.2,0,0,1,.8.6,1.1,1.1,0,0,1,.3.8,1.4,1.4,0,0,1-1.4,1.4h-.5a14.4,14.4,0,0,0-4-.6,4.8,4.8,0,0,0-2.9.7,1.8,1.8,0,0,0-1.1,1.7,1.7,1.7,0,0,0,1,1.6,13.8,13.8,0,0,0,3,.9l3.4,1a6.9,6.9,0,0,1,2.2,1.6,4.6,4.6,0,0,1,.9,2.9,5,5,0,0,1-1.7,3.8,8.2,8.2,0,0,1-5,1.4A12.4,12.4,0,0,1,533.5,335.3Z" transform="translate(-287.1 -304.8)"/><path d="M551.3,336.3a1.5,1.5,0,0,1-.4-1.1V312.5a1.6,1.6,0,0,1,.4-1.2,1.7,1.7,0,0,1,1.2-.5,1.6,1.6,0,0,1,1.1.5,1.7,1.7,0,0,1,.5,1.2v9.1a12.3,12.3,0,0,1,2.8-2.4,8.7,8.7,0,0,1,3.7-.8,5.8,5.8,0,0,1,3.3.9,5.4,5.4,0,0,1,2.2,2.5,7.7,7.7,0,0,1,.7,3.4v10a1.5,1.5,0,0,1-.4,1.1,1.6,1.6,0,0,1-1.2.4,1.4,1.4,0,0,1-1.5-1.5v-9.6c0-2.9-1.3-4.3-3.9-4.3a5.4,5.4,0,0,0-3.1.9,10.1,10.1,0,0,0-2.6,2.5v10.5a1.6,1.6,0,0,1-.5,1.1,1.5,1.5,0,0,1-1.1.4A1.6,1.6,0,0,1,551.3,336.3Z" transform="translate(-287.1 -304.8)"/><path d="M570.7,336.4a1.4,1.4,0,0,1-.2-.6h0a1.4,1.4,0,0,1,.2-.6.9.9,0,0,1,.6-.3h.2a.9.9,0,0,1,.6.3,1.4,1.4,0,0,1,.2.6h0a1.4,1.4,0,0,1-.2.6l-.6.2h-.2Z" transform="translate(-287.1 -304.8)"/><path d="M575.8,336.2a3.5,3.5,0,0,1-1.4-1.3,4.8,4.8,0,0,1-.5-2.2,3.8,3.8,0,0,1,1.9-3.5,3.3,3.3,0,0,1,1.7-.4,3.6,3.6,0,0,1,2.6,1.1v-3.7c0-.2.1-.3.2-.5l.5-.2.5.2c.1.2.2.3.2.5V336c0,.2-.1.3-.2.5h-1c-.1-.2-.2-.3-.2-.5v-.4a3.6,3.6,0,0,1-2.6,1.1A2.6,2.6,0,0,1,575.8,336.2Zm3.2-1.1a2.8,2.8,0,0,0,1.1-.8v-3.1a2.8,2.8,0,0,0-1.1-.8,2,2,0,0,0-1.3-.4,2.5,2.5,0,0,0-1.8.8,2.7,2.7,0,0,0-.6,1.9,2.8,2.8,0,0,0,.6,2,2.4,2.4,0,0,0,1.8.7A2.8,2.8,0,0,0,579,335.1Z" transform="translate(-287.1 -304.8)"/><path d="M584,336.5c-.1-.2-.2-.3-.2-.5v-9.8c0-.2.1-.3.2-.5l.5-.2.5.2c.1.2.2.3.2.5v6.2l3.6-3.3a.4.4,0,0,1,.4-.2c.3,0,.4,0,.5.2a.8.8,0,0,1,.2.4.5.5,0,0,1-.3.5l-2.1,2,2.7,3.6c.1.1.1.2.1.4a.6.6,0,0,1-.2.5h-.8l-.2-.2-2.6-3.5-1.3,1.1v2c0,.2-.1.3-.2.5h-1Z" transform="translate(-287.1 -304.8)"/><path d="M300.6,351l-.9-.2a2.1,2.1,0,0,1-1.4-2V338.2h-9a2.3,2.3,0,0,1-2.2-2.3V307a2.2,2.2,0,0,1,2.2-2.2h41.8a2.2,2.2,0,0,1,2.2,2.2v28.9a2.3,2.3,0,0,1-2.2,2.3h-16l-13,12.2A2.2,2.2,0,0,1,300.6,351Zm-9-17.3h9a2.2,2.2,0,0,1,2.2,2.2v7.6l9.9-9.2a2,2,0,0,1,1.5-.6h14.6V309.2H291.6Z" transform="translate(-287.1 -304.8)"/><circle cx="14.1" cy="16.8" r="3"/><circle class="a" cx="23.1" cy="16.8" r="3"/><circle class="a" cx="32.1" cy="16.8" r="3"/></svg>