<svg xmlns="http://www.w3.org/2000/svg" width="0" height="0" style="position:absolute"><symbol id="_th-menu" viewBox="0 0 24 24"><path d="M19 17H5c-1.103 0-2 .897-2 2s.897 2 2 2h14c1.103 0 2-.897 2-2s-.897-2-2-2zm0-7H5c-1.103 0-2 .897-2 2s.897 2 2 2h14c1.103 0 2-.897 2-2s-.897-2-2-2zm0-7H5c-1.103 0-2 .897-2 2s.897 2 2 2h14c1.103 0 2-.897 2-2s-.897-2-2-2z"/></symbol><symbol id="arrow-right" viewBox="0 0 32 32"><path d="M19.414 27.414l10-10a2 2 0 0 0 0-2.828l-10-10a2 2 0 1 0-2.828 2.828L23.172 14H4a2 2 0 1 0 0 4h19.172l-6.586 6.586c-.39.39-.586.902-.586 1.414s.195 1.024.586 1.414a2 2 0 0 0 2.828 0z"/></symbol><symbol id="cancel" viewBox="0 0 32 32"><path d="M16 29C8.82 29 3 23.18 3 16S8.82 3 16 3s13 5.82 13 13-5.82 13-13 13zm5.961-16.791a.626.626 0 0 0 0-.885l-1.328-1.327a.626.626 0 0 0-.885 0l-3.761 3.761-3.761-3.761a.626.626 0 0 0-.885 0l-1.328 1.327a.626.626 0 0 0 0 .885l3.762 3.762-3.762 3.76a.626.626 0 0 0 0 .885l1.328 1.328a.626.626 0 0 0 .885 0l3.761-3.762 3.761 3.762a.626.626 0 0 0 .885 0l1.328-1.328a.626.626 0 0 0 0-.885l-3.762-3.76 3.762-3.762z"/></symbol><symbol id="chevron-down" viewBox="0 0 24 24"><path d="M18.7 8.3c-.4-.4-1-.4-1.4 0L12 13.6 6.7 8.3c-.4-.4-1-.4-1.4 0s-.4 1 0 1.4l6 6c.2.2.5.3.7.3s.5-.1.7-.3l6-6c.4-.4.4-1 0-1.4z"/></symbol><symbol id="chevron-left" viewBox="0 0 24 24"><path d="M10.4 12l5.3-5.3c.4-.4.4-1 0-1.4s-1-.4-1.4 0l-6 6c-.4.4-.4 1 0 1.4l6 6c.2.2.5.3.7.3s.5-.1.7-.3c.4-.4.4-1 0-1.4L10.4 12z"/></symbol><symbol id="chevron-right" viewBox="0 0 24 24"><path d="M15.7 11.3l-6-6c-.4-.4-1-.4-1.4 0s-.4 1 0 1.4l5.3 5.3-5.3 5.3c-.4.4-.4 1 0 1.4.2.2.4.3.7.3s.5-.1.7-.3l6-6c.4-.4.4-1 0-1.4z"/></symbol><symbol id="chevron-up" viewBox="0 0 24 24"><path d="M18.7 14.3l-6-6c-.4-.4-1-.4-1.4 0l-6 6c-.4.4-.4 1 0 1.4s1 .4 1.4 0l5.3-5.3 5.3 5.3c.2.2.5.3.7.3s.5-.1.7-.3c.4-.4.4-1 0-1.4z"/></symbol><symbol id="close" viewBox="0 0 22 28"><path d="M20.281 20.656c0 .391-.156.781-.438 1.062l-2.125 2.125c-.281.281-.672.438-1.062.438s-.781-.156-1.062-.438L11 19.249l-4.594 4.594c-.281.281-.672.438-1.062.438s-.781-.156-1.062-.438l-2.125-2.125c-.281-.281-.438-.672-.438-1.062s.156-.781.438-1.062L6.751 15l-4.594-4.594c-.281-.281-.438-.672-.438-1.062s.156-.781.438-1.062l2.125-2.125c.281-.281.672-.438 1.062-.438s.781.156 1.062.438L11 10.751l4.594-4.594c.281-.281.672-.438 1.062-.438s.781.156 1.062.438l2.125 2.125c.281.281.438.672.438 1.062s-.156.781-.438 1.062L15.249 15l4.594 4.594c.281.281.438.672.438 1.062z"/></symbol><symbol id="list-ul" viewBox="0 0 28 28"><path d="M6 22a3.001 3.001 0 0 1-6 0 3.001 3.001 0 0 1 6 0zm0-8a3.001 3.001 0 0 1-6 0 3.001 3.001 0 0 1 6 0zm22 6.5v3c0 .266-.234.5-.5.5h-19a.514.514 0 0 1-.5-.5v-3c0-.266.234-.5.5-.5h19c.266 0 .5.234.5.5zM6 6a3.001 3.001 0 0 1-6 0 3.001 3.001 0 0 1 6 0zm22 6.5v3c0 .266-.234.5-.5.5h-19a.514.514 0 0 1-.5-.5v-3c0-.266.234-.5.5-.5h19c.266 0 .5.234.5.5zm0-8v3c0 .266-.234.5-.5.5h-19a.514.514 0 0 1-.5-.5v-3c0-.266.234-.5.5-.5h19c.266 0 .5.234.5.5z"/></symbol><symbol id="logo" viewBox="0 0 303.3 46.3"><defs><style>.a{fill-opacity:.5}</style></defs><path d="M59.8 30.4a1.8 1.8 0 0 1-.7-.5 1.6 1.6 0 0 1-.3-.9 1.8 1.8 0 0 1 .4-1 1.4 1.4 0 0 1 1.1-.5l.6.2a18.1 18.1 0 0 0 6.9 1.4c4.1 0 6.1-1.3 6.1-4a2.4 2.4 0 0 0-.7-1.8 9.5 9.5 0 0 0-2-1.1c-.8-.2-1.8-.6-3.3-.9l-4.6-1.4a10.2 10.2 0 0 1-3-2.1 5.2 5.2 0 0 1-1.2-3.6 6.6 6.6 0 0 1 1-3.7A7.8 7.8 0 0 1 63.2 8a10.7 10.7 0 0 1 4.9-1 21.9 21.9 0 0 1 7 1.1 1.4 1.4 0 0 1 1 1.4 1.5 1.5 0 0 1-.4 1.1 1.3 1.3 0 0 1-1 .4h-.6a15.4 15.4 0 0 0-5.6-1 8.3 8.3 0 0 0-4.5 1.1 3.2 3.2 0 0 0-1.7 2.9 2.6 2.6 0 0 0 .8 2.1 5.6 5.6 0 0 0 2 1.2l3.4.9a30.7 30.7 0 0 1 4.5 1.4 7.2 7.2 0 0 1 2.9 2 5.6 5.6 0 0 1 1.2 3.8 6.1 6.1 0 0 1-1.1 3.5 6.5 6.5 0 0 1-3.2 2.4 11.3 11.3 0 0 1-4.7.9 19.6 19.6 0 0 1-8.3-1.8zm21.7 1.1a1.5 1.5 0 0 1-.4-1.1v-15a1.6 1.6 0 0 1 .4-1.2 1.7 1.7 0 0 1 1.2-.5 1.6 1.6 0 0 1 1.1.5 1.7 1.7 0 0 1 .5 1.2v1.4a12.3 12.3 0 0 1 2.8-2.4 8.7 8.7 0 0 1 3.7-.8 5.8 5.8 0 0 1 3.3.9 5.4 5.4 0 0 1 2.2 2.5 7.7 7.7 0 0 1 .7 3.4v10a1.5 1.5 0 0 1-.4 1.1 1.6 1.6 0 0 1-1.2.4 1.4 1.4 0 0 1-1.5-1.5v-9.6c0-2.9-1.3-4.3-3.9-4.3a5.4 5.4 0 0 0-3.1.9 10.1 10.1 0 0 0-2.6 2.5v10.5a1.6 1.6 0 0 1-.5 1.1 1.5 1.5 0 0 1-1.1.4 1.6 1.6 0 0 1-1.2-.4zm22.6 0a4.6 4.6 0 0 1-2.1-1.8 5.7 5.7 0 0 1-.8-2.8 5 5 0 0 1 2.1-4.2 10.2 10.2 0 0 1 6-1.5h4.2v-.3a4.1 4.1 0 0 0-1.1-3.3 5.2 5.2 0 0 0-3.6-1l-2.3.2-2.3.6h-.5a1.2 1.2 0 0 1-.9-.4 1.8 1.8 0 0 1-.4-.9 1.4 1.4 0 0 1 .9-1.4 16.2 16.2 0 0 1 6.1-1.2 7.6 7.6 0 0 1 4.1 1 5.8 5.8 0 0 1 2.4 2.5 6.6 6.6 0 0 1 .8 3.4v9.9a1.3 1.3 0 0 1-.5 1.1 1.4 1.4 0 0 1-1.1.4 1.5 1.5 0 0 1-1.1-.4 1.6 1.6 0 0 1-.5-1.1v-.9A8.9 8.9 0 0 1 107 32a6.8 6.8 0 0 1-2.9-.5zm7-2.9a7.8 7.8 0 0 0 2.4-1.9v-2.9h-3.8c-3.5 0-5.3.9-5.3 2.7a2.7 2.7 0 0 0 .9 2.1 4.3 4.3 0 0 0 2.8.7 6 6 0 0 0 3-.7zm11.4 2.9a1.5 1.5 0 0 1-.4-1.1V7.7a1.5 1.5 0 0 1 1.5-1.7 1.7 1.7 0 0 1 1.7 1.7V22l8.3-7.7a1.6 1.6 0 0 1 1-.5 1.5 1.5 0 0 1 1.6 1.6 1.5 1.5 0 0 1-.6 1.1l-5.1 4.6 6.4 8.4a1.6 1.6 0 0 1 .3.9 1.4 1.4 0 0 1-.4 1.1 1.6 1.6 0 0 1-1.2.4h-.7l-.6-.5-6-8.2-3 2.8v4.5a1.5 1.5 0 0 1-1.7 1.5 1.5 1.5 0 0 1-1.1-.5zm23.7-1a10.7 10.7 0 0 1-4.3-4.4 14.2 14.2 0 0 1 0-13.1 11.3 11.3 0 0 1 4.3-4.4 11.9 11.9 0 0 1 6.4-1.6 12.2 12.2 0 0 1 6.4 1.6 11.6 11.6 0 0 1 4.3 4.5 13.8 13.8 0 0 1 0 12.9 11 11 0 0 1-4.3 4.5 12.2 12.2 0 0 1-6.4 1.6 11.9 11.9 0 0 1-6.4-1.6zm11.3-2.6a9.2 9.2 0 0 0 3.1-3.4 11.4 11.4 0 0 0 1.1-4.9 10.7 10.7 0 0 0-1.1-4.9 8.8 8.8 0 0 0-3.1-3.5 10.6 10.6 0 0 0-9.8 0 8.1 8.1 0 0 0-3.1 3.5 10.7 10.7 0 0 0-1.1 4.9 11.4 11.4 0 0 0 1.1 4.9 8.4 8.4 0 0 0 3.1 3.4 10.6 10.6 0 0 0 9.8 0zm12.2 3.6a1.5 1.5 0 0 1-.4-1.1v-15a1.5 1.5 0 0 1 1.5-1.7 1.7 1.7 0 0 1 1.2.5 1.6 1.6 0 0 1 .4 1.2v1.4a10.4 10.4 0 0 1 2.4-2.3 6.4 6.4 0 0 1 3.6-.9 5.2 5.2 0 0 1 3.3 1 5.6 5.6 0 0 1 2 2.6 7.1 7.1 0 0 1 6.5-3.6 5.2 5.2 0 0 1 3.3 1 5.4 5.4 0 0 1 1.9 2.5 8.7 8.7 0 0 1 .6 3.2v10.1a1.5 1.5 0 0 1-.4 1.1 1.7 1.7 0 0 1-1.2.4 1.5 1.5 0 0 1-1.1-.4 1.6 1.6 0 0 1-.5-1.1v-9.5a5 5 0 0 0-.8-3.3 3.1 3.1 0 0 0-2.7-1.1 4.9 4.9 0 0 0-3 .9 10.3 10.3 0 0 0-2.1 2.5v10.5a1.5 1.5 0 0 1-.4 1.1 1.7 1.7 0 0 1-1.2.4 1.5 1.5 0 0 1-1.1-.4 1.6 1.6 0 0 1-.5-1.1v-9.5a5 5 0 0 0-.8-3.3 3.1 3.1 0 0 0-2.7-1.1 4.9 4.9 0 0 0-3 .9 10.3 10.3 0 0 0-2.1 2.5v10.5a1.5 1.5 0 0 1-.4 1.1 1.6 1.6 0 0 1-1.2.4 1.5 1.5 0 0 1-1.1-.4zm32.3 0a1.6 1.6 0 0 1-.5-1.1V8.8a1.8 1.8 0 0 1 .5-1.2 1.7 1.7 0 0 1 2.2 0 1.5 1.5 0 0 1 .5 1.2v9.3H218V8.8a1.7 1.7 0 0 1 .4-1.2 1.5 1.5 0 0 1 1.1-.4 1.6 1.6 0 0 1 1.2.4 1.8 1.8 0 0 1 .5 1.2v21.6a1.5 1.5 0 0 1-1.7 1.5 1.4 1.4 0 0 1-1.5-1.5v-9.3h-13.3v9.3a1.3 1.3 0 0 1-.5 1.1 1.7 1.7 0 0 1-2.2 0zm27 0a4.6 4.6 0 0 1-2.1-1.8 5.5 5.5 0 0 1-.7-2.8 4.9 4.9 0 0 1 2-4.2 10.2 10.2 0 0 1 6-1.5h4.2v-.3a4.1 4.1 0 0 0-1.1-3.3 4.9 4.9 0 0 0-3.5-1l-2.4.2-2.3.6h-.5a1.2 1.2 0 0 1-.9-.4 1.6 1.6 0 0 1-.3-.9 1.4 1.4 0 0 1 .9-1.4 15.7 15.7 0 0 1 6-1.2 7.6 7.6 0 0 1 4.1 1 5.8 5.8 0 0 1 2.4 2.5 6.6 6.6 0 0 1 .8 3.4v9.9a1.5 1.5 0 0 1-.4 1.1 1.7 1.7 0 0 1-1.2.4 1.5 1.5 0 0 1-1.1-.4 1.6 1.6 0 0 1-.5-1.1v-.9a8.9 8.9 0 0 1-6.5 2.6 6.8 6.8 0 0 1-2.9-.5zm7-2.9a7.8 7.8 0 0 0 2.4-1.9v-2.9h-3.8c-3.5 0-5.3.9-5.3 2.7a2.7 2.7 0 0 0 .9 2.1 4.4 4.4 0 0 0 2.9.7 5.9 5.9 0 0 0 2.9-.7zm10.4 1.9a1.1 1.1 0 0 1-.6-1.1 1.3 1.3 0 0 1 .4-1 1.2 1.2 0 0 1 1-.4h.6a9.7 9.7 0 0 0 2.2.8 10.3 10.3 0 0 0 2.6.3c2.5 0 3.8-.8 3.8-2.5a1.4 1.4 0 0 0-.9-1.2 15.1 15.1 0 0 0-2.9-1 17.5 17.5 0 0 1-3.4-1 5.3 5.3 0 0 1-2.3-1.6 4.1 4.1 0 0 1-1-2.8 5 5 0 0 1 1.8-4 7.8 7.8 0 0 1 5.1-1.5 15.9 15.9 0 0 1 5 .8 1.2 1.2 0 0 1 .8.6 1.1 1.1 0 0 1 .3.8 1.4 1.4 0 0 1-1.4 1.4h-.5a14.4 14.4 0 0 0-4-.6 4.8 4.8 0 0 0-2.9.7 1.8 1.8 0 0 0-1.1 1.7 1.7 1.7 0 0 0 1 1.6 13.8 13.8 0 0 0 3 .9l3.4 1a6.9 6.9 0 0 1 2.2 1.6 4.6 4.6 0 0 1 .9 2.9 5 5 0 0 1-1.7 3.8 8.2 8.2 0 0 1-5 1.4 12.4 12.4 0 0 1-6.4-1.6zm17.8 1a1.5 1.5 0 0 1-.4-1.1V7.7a1.6 1.6 0 0 1 .4-1.2 1.7 1.7 0 0 1 1.2-.5 1.6 1.6 0 0 1 1.1.5 1.7 1.7 0 0 1 .5 1.2v9.1a12.3 12.3 0 0 1 2.8-2.4 8.7 8.7 0 0 1 3.7-.8 5.8 5.8 0 0 1 3.3.9A5.4 5.4 0 0 1 279 17a7.7 7.7 0 0 1 .7 3.4v10a1.5 1.5 0 0 1-.4 1.1 1.6 1.6 0 0 1-1.2.4 1.4 1.4 0 0 1-1.5-1.5v-9.6c0-2.9-1.3-4.3-3.9-4.3a5.4 5.4 0 0 0-3.1.9 10.1 10.1 0 0 0-2.6 2.5v10.5a1.6 1.6 0 0 1-.5 1.1 1.5 1.5 0 0 1-1.1.4 1.6 1.6 0 0 1-1.2-.4zm19.4.1a1.4 1.4 0 0 1-.2-.6 1.4 1.4 0 0 1 .2-.6.9.9 0 0 1 .6-.3h.2a.9.9 0 0 1 .6.3 1.4 1.4 0 0 1 .2.6 1.4 1.4 0 0 1-.2.6l-.6.2h-.2zm5.1-.2a3.5 3.5 0 0 1-1.4-1.3 4.8 4.8 0 0 1-.5-2.2 3.8 3.8 0 0 1 1.9-3.5 3.3 3.3 0 0 1 1.7-.4 3.6 3.6 0 0 1 2.6 1.1v-3.7c0-.2.1-.3.2-.5l.5-.2.5.2c.1.2.2.3.2.5v9.8c0 .2-.1.3-.2.5h-1c-.1-.2-.2-.3-.2-.5v-.4a3.6 3.6 0 0 1-2.6 1.1 2.6 2.6 0 0 1-1.7-.5zm3.2-1.1a2.8 2.8 0 0 0 1.1-.8v-3.1a2.8 2.8 0 0 0-1.1-.8 2 2 0 0 0-1.3-.4 2.5 2.5 0 0 0-1.8.8 2.7 2.7 0 0 0-.6 1.9 2.8 2.8 0 0 0 .6 2 2.4 2.4 0 0 0 1.8.7 2.8 2.8 0 0 0 1.3-.3zm5 1.4c-.1-.2-.2-.3-.2-.5v-9.8c0-.2.1-.3.2-.5l.5-.2.5.2c.1.2.2.3.2.5v6.2l3.6-3.3a.4.4 0 0 1 .4-.2c.3 0 .4 0 .5.2a.8.8 0 0 1 .2.4.5.5 0 0 1-.3.5l-2.1 2 2.7 3.6c.1.1.1.2.1.4a.6.6 0 0 1-.2.5h-.8l-.2-.2-2.6-3.5-1.3 1.1v2c0 .2-.1.3-.2.5h-1zM13.5 46.2l-.9-.2a2.1 2.1 0 0 1-1.4-2V33.4h-9A2.3 2.3 0 0 1 0 31.1V2.2A2.2 2.2 0 0 1 2.2 0H44a2.2 2.2 0 0 1 2.2 2.2v28.9a2.3 2.3 0 0 1-2.2 2.3H28L15 45.6a2.2 2.2 0 0 1-1.5.6zm-9-17.3h9a2.2 2.2 0 0 1 2.2 2.2v7.6l9.9-9.2a2 2 0 0 1 1.5-.6h14.6V4.4H4.5z"/><circle cx="14.1" cy="16.8" r="3"/><circle class="a" cx="23.1" cy="16.8" r="3"/><circle class="a" cx="32.1" cy="16.8" r="3"/></symbol><symbol id="play" viewBox="0 0 32 32"><path d="M16 0C7.163 0 0 7.163 0 16s7.163 16 16 16 16-7.163 16-16S24.837 0 16 0zm0 29C8.82 29 3 23.18 3 16S8.82 3 16 3s13 5.82 13 13-5.82 13-13 13zM12 9l12 7-12 7z"/></symbol><symbol id="quotes-right" viewBox="0 0 32 32"><path d="M25 20a7 7 0 1 1 7-7l.031 1c0 7.732-6.268 14-14 14v-4a9.934 9.934 0 0 0 7.071-2.929c.364-.364.695-.75.995-1.157A7.081 7.081 0 0 1 25 20zM7 20a7 7 0 1 1 7-7l.031 1c0 7.732-6.268 14-14 14v-4a9.934 9.934 0 0 0 7.071-2.929c.364-.364.695-.75.995-1.157A7.081 7.081 0 0 1 7 20z"/></symbol><symbol id="search" viewBox="0 0 24 24"><path d="M21.7 20.3L18 16.6c1.2-1.5 2-3.5 2-5.6 0-5-4-9-9-9s-9 4-9 9 4 9 9 9c2.1 0 4.1-.7 5.6-2l3.7 3.7c.2.2.5.3.7.3s.5-.1.7-.3c.4-.4.4-1 0-1.4zM4 11c0-3.9 3.1-7 7-7s7 3.1 7 7c0 1.9-.8 3.7-2 4.9-1.3 1.3-3 2-4.9 2-4 .1-7.1-3-7.1-6.9z"/></symbol><symbol id="th-menu" viewBox="0 0 100 100"><path d="M11 31h58c6.075 0 11-4.925 11-11S75.075 9 69 9H11C4.925 9 0 13.925 0 20s4.925 11 11 11zm78 8H11C4.925 39 0 43.925 0 50s4.925 11 11 11h78c6.075 0 11-4.925 11-11s-4.925-11-11-11zM69 69H11C4.925 69 0 73.925 0 80s4.925 11 11 11h58c6.075 0 11-4.925 11-11s-4.925-11-11-11z"/></symbol></svg>