<!-- Generated by IcoMoon.io -->
<svg version="1.1" xmlns="http://www.w3.org/2000/svg" width="640" height="640" viewBox="0 0 640 640">
<title>quotes-right</title>
<g id="icomoon-ignore">
</g>
<path fill="#000" d="M612.571 274.286h-585.143c-25.234 0-27.429 20.434-27.429 45.714s2.194 45.714 27.429 45.714h585.143c25.234 0 27.429-20.434 27.429-45.714s-2.194-45.714-27.429-45.714zM612.571 457.143h-585.143c-25.234 0-27.429 20.434-27.429 45.714s2.194 45.714 27.429 45.714h585.143c25.234 0 27.429-20.434 27.429-45.714s-2.194-45.714-27.429-45.714zM27.429 182.857h585.143c25.234 0 27.429-20.434 27.429-45.714s-2.194-45.714-27.429-45.714h-585.143c-25.234 0-27.429 20.434-27.429 45.714s2.194 45.714 27.429 45.714z"></path>
</svg>
